<?xml version="1.0" encoding="UTF-8"?>
<svg id="katman_1" data-name="katman 1" xmlns="http://www.w3.org/2000/svg" version="1.1" viewBox="0 0 841.89 595.28">
  <defs>
    <style>
      .cls-1 {
        fill: #000;
        stroke-width: 0px;
      }
    </style>
  </defs>
  <path class="cls-1" d="M655.37,174.16h-7.79c-27.5.92-52.66,10.96-72.83,26.95-20.23-16-45.51-26.04-73.21-26.95h-7.79c-27.5.92-52.66,10.96-72.82,26.95-20.23-16-45.51-26.04-73.2-26.95h-7.78c-27.5.92-52.66,10.96-72.83,26.96-20.23-16-45.51-26.04-73.2-26.96h-7.79c-67.25,2.23-121.04,58.43-119.92,125.28,1.12,66.84,56.77,121.22,124.06,121.22,28.94,0,55.68-10.1,76.91-26.89,21.22,16.78,47.97,26.89,76.91,26.89s55.69-10.1,76.91-26.89c21.22,16.78,47.97,26.89,76.91,26.89s55.68-10.1,76.91-26.89c21.22,16.78,47.97,26.89,76.91,26.89,67.28,0,122.92-54.38,124.05-121.22,1.12-66.85-52.67-123.05-120.39-125.28ZM574.8,353.4c-11.43-15.34-18.41-34.11-18.74-54.44-.36-21.44,6.71-41.4,18.75-57.58,12.04,16.18,19.11,36.14,18.74,57.58-.34,20.32-7.32,39.09-18.74,54.44ZM420.99,353.4c-11.43-15.34-18.41-34.11-18.75-54.43-.36-21.44,6.72-41.4,18.75-57.58,12.04,16.18,19.11,36.14,18.75,57.58-.34,20.33-7.32,39.1-18.75,54.44ZM267.17,353.39c-11.43-15.34-18.41-34.11-18.75-54.43-.36-21.44,6.71-41.4,18.75-57.58,12.03,16.18,19.1,36.14,18.74,57.58-.34,20.32-7.32,39.09-18.74,54.43ZM94.6,298.96c-.86-51.37,40.5-94.57,92.24-96.4h6.61c19.96.65,38.35,7.52,53.42,18.59-17.21,21.59-27.34,48.9-26.84,78.29.47,27.9,10.53,53.56,26.88,74.07-15.92,11.72-35.51,18.75-56.64,18.75-51.88,0-94.79-41.85-95.66-93.3ZM287.43,373.51c16.35-20.51,26.42-46.16,26.88-74.07.49-29.38-9.63-56.69-26.87-78.27,15.01-11.04,33.34-17.9,53.23-18.6h6.59c19.96.65,38.35,7.51,53.42,18.59-17.21,21.59-27.34,48.9-26.85,78.29.47,27.9,10.54,53.56,26.9,74.07-15.92,11.72-35.51,18.75-56.65,18.75s-40.73-7.03-56.65-18.75ZM441.25,373.51c16.35-20.51,26.42-46.17,26.89-74.07.49-29.38-9.63-56.69-26.87-78.28,15.01-11.04,33.33-17.9,53.22-18.6h6.6c19.97.65,38.36,7.51,53.43,18.58-17.21,21.59-27.34,48.91-26.85,78.29.47,27.9,10.53,53.56,26.89,74.07-15.92,11.71-35.51,18.75-56.64,18.75s-40.73-7.03-56.65-18.75ZM651.72,392.26c-21.14,0-40.73-7.03-56.65-18.75,16.35-20.51,26.42-46.17,26.89-74.07.5-29.38-9.63-56.69-26.87-78.28,15.01-11.04,33.33-17.9,53.22-18.6h6.59c51.85,1.71,93.33,44.95,92.46,96.4-.86,51.44-43.77,93.3-95.64,93.3Z"/>
</svg>