<?xml version="1.0" encoding="utf-8"?>
<!-- Generator: Adobe Illustrator 25.0.1, SVG Export Plug-In . SVG Version: 6.00 Build 0)  -->
<svg version="1.0" id="Layer_1" xmlns="http://www.w3.org/2000/svg" xmlns:xlink="http://www.w3.org/1999/xlink" x="0px" y="0px"
	 viewBox="0 0 666.5 497.6" style="enable-background:new 0 0 666.5 497.6;" xml:space="preserve">
<g>
	<path d="M104.3,198.7h19.4l16.8,31.8H165l-20.6-35.6c2.8-1.3,5.4-2.9,7.6-4.9c6.6-5.8,10-13.8,10-23.9c0-10.3-3.3-18.4-10-24.2
		c-6.6-5.8-15.8-8.7-27.6-8.7H83v97.2h21.3V198.7z M125,152c4.9,0,8.6,1.2,11.3,3.7c2.7,2.5,4,6,4,10.6c0,4.4-1.3,7.8-4,10.3
		c-2.7,2.5-6.5,3.8-11.3,3.8h-20.7V152H125z M244.4,204.9h-20.7c-0.5,1.8-1.4,3.5-2.8,4.9c-1.4,1.5-3.1,2.6-5.2,3.4
		c-2.1,0.8-4.6,1.2-7.7,1.2c-3.8,0-7.1-0.8-10.2-2.3c-3-1.5-5.4-3.9-7.1-7.1c-1-1.9-1.7-4.2-2.2-6.8h56.1c0.1-1,0.3-2.9,0.3-6.1
		c0-8.1-1.6-15.1-4.9-20.9c-3.2-5.8-7.7-10.3-13.4-13.5c-5.7-3.2-12.2-4.8-19.6-4.8c-7.6,0-14.3,1.6-20.2,4.9
		c-5.9,3.3-10.5,7.9-13.8,13.8c-3.4,5.9-5,12.8-5,20.7c0,7.9,1.7,14.8,5.2,20.7c3.4,5.9,8.2,10.5,14.2,13.8c6,3.3,12.9,4.9,20.6,4.9
		c6.5,0,12.3-1.1,17.4-3.4c5.1-2.3,9.3-5.4,12.7-9.5C241.5,215,243.6,210.3,244.4,204.9z M197.3,172c2.8-1.4,5.9-2.1,9.2-2.1
		c3.2,0,6.2,0.6,9,1.9c2.7,1.3,5,3.2,6.7,5.8c1.2,1.8,2,4,2.3,6.5h-35.7c0.4-2,1-3.8,1.8-5.3C192.3,175.7,194.5,173.4,197.3,172z
		 M275.8,230.4H255v-76h14.8l3.9,7.8c2.1-2.3,4.6-4.3,7.5-5.8c4.4-2.3,9.4-3.5,15.1-3.5c6.2,0,11.7,1.3,16.5,3.8
		c4.8,2.5,8.6,6.2,11.5,10.9c2.8,4.8,4.3,10.4,4.3,17v45.7h-20.8v-42.5c0-3.4-0.7-6.4-2-8.9c-1.3-2.5-3.2-4.4-5.6-5.7
		c-2.4-1.3-5.1-2-8.3-2c-4.9,0-8.7,1.4-11.6,4.3c-2.9,2.9-4.3,7-4.3,12.2L275.8,230.4L275.8,230.4z M416.5,154.5h-14.8l-3.9,7.8
		c-1.6-1.7-3.5-3.1-5.4-4.4c-5.1-3.3-11.1-4.9-17.9-4.9c-6.7,0-12.9,1.6-18.6,4.9c-5.7,3.3-10.3,7.9-13.8,13.8
		c-3.5,5.9-5.2,12.8-5.2,20.7c0,7.9,1.8,14.8,5.2,20.7c3.5,5.9,8.1,10.5,13.8,13.8c5.7,3.3,11.9,4.9,18.6,4.9
		c6.8,0,12.8-1.6,17.9-4.9c2-1.3,3.8-2.7,5.4-4.4l3.9,7.8h14.8V154.5z M387.7,210.8c-2.9,1.7-6.3,2.6-10,2.6c-3.8,0-7.1-0.9-10-2.6
		c-2.9-1.7-5.3-4.2-7-7.3c-1.7-3.1-2.6-6.8-2.6-11.1c0-4.4,0.9-8.1,2.6-11.2c1.7-3.1,4.1-5.6,7-7.3c2.9-1.7,6.3-2.6,10-2.6
		s7.1,0.9,10,2.6c2.9,1.7,5.3,4.2,7,7.3c1.7,3.1,2.6,6.9,2.6,11.2c0,4.3-0.9,8-2.6,11.1C392.9,206.7,390.6,209.1,387.7,210.8z
		 M479.9,154.5h20.8v45.3c0,6.5-1.5,12.2-4.6,17c-3,4.9-7.2,8.6-12.6,11.2c-5.4,2.6-11.6,4-18.7,4c-10.7,0-19.4-2.9-26-8.6
		c-6.6-5.7-9.9-13.6-9.9-23.6v-45.3h20.8v43c0,5.3,1.4,9.2,4.1,11.9c2.7,2.7,6.4,4,10.9,4c4.7,0,8.3-1.3,11-4c2.7-2.7,4-6.7,4-11.9
		L479.9,154.5L479.9,154.5z M512.6,133.2h20.8v97.2h-20.8V133.2z M178,285.3c0.1,1.5,0.1,2.9,0.1,4.3c0,9.8-2.2,18.3-6.5,25.4
		c-4.4,7.1-10.3,12.5-17.7,16.3c-7.4,3.8-15.9,5.7-25.3,5.7c-7.3,0-14.1-1.2-20.3-3.7c-6.2-2.5-11.7-6-16.3-10.6
		c-4.6-4.6-8.2-9.9-10.8-15.9c-2.6-6.1-3.9-12.7-3.9-19.9c0-7.2,1.3-13.8,3.8-19.9c2.5-6.1,6.1-11.4,10.6-15.9
		c4.6-4.5,9.9-8,16.1-10.6c6.2-2.5,12.9-3.8,20.2-3.8c9.1,0,17.1,1.6,23.8,4.9c6.7,3.2,12.2,7.5,16.3,12.8c4.1,5.3,6.7,10.9,7.7,17
		h-22.2c-0.7-2.4-2.2-4.8-4.3-7.1c-2.2-2.3-5-4.3-8.5-5.8c-3.5-1.5-7.7-2.3-12.5-2.3c-5.7,0-10.7,1.3-15.1,3.8
		c-4.4,2.5-7.9,6.1-10.3,10.6c-2.5,4.6-3.7,10-3.7,16.3c0,6.3,1.3,11.8,3.8,16.4c2.5,4.7,6.1,8.3,10.6,10.8
		c4.5,2.5,9.7,3.8,15.4,3.8c5.4,0,10.1-0.8,14.1-2.5c4-1.7,7.2-4.2,9.4-7.5c1.7-2.5,2.8-5.4,3.4-8.8h-32.8v-17.9h54.7
		C177.8,282.5,177.9,283.9,178,285.3z M299.6,263c-6.2-3.3-13.2-4.9-21-4.9s-14.8,1.6-20.9,4.9c-6.1,3.3-11,7.9-14.5,13.8
		c-3.5,5.9-5.3,12.8-5.3,20.7c0,7.9,1.8,14.8,5.3,20.7c3.6,5.9,8.4,10.5,14.5,13.8c6.1,3.3,13.1,4.9,20.9,4.9c7.8,0,14.8-1.6,21-4.9
		c6.2-3.3,11-7.9,14.6-13.8c3.5-5.9,5.3-12.8,5.3-20.7c0-7.9-1.8-14.8-5.3-20.7C310.6,270.9,305.8,266.3,299.6,263z M295.9,308.7
		c-1.7,3.1-4.1,5.6-7.1,7.3c-3,1.7-6.4,2.6-10.3,2.6c-3.8,0-7.1-0.9-10.1-2.6c-3-1.7-5.4-4.2-7.1-7.3c-1.7-3.1-2.6-6.8-2.6-11.1
		c0-4.4,0.9-8.1,2.6-11.2c1.7-3.1,4.1-5.6,7.1-7.3c3-1.7,6.4-2.6,10.1-2.6c3.9,0,7.3,0.9,10.3,2.6c3,1.7,5.3,4.2,7.1,7.3
		c1.7,3.1,2.6,6.9,2.6,11.2C298.5,301.8,297.7,305.5,295.9,308.7z M378.7,259.6h20.8v45.3c0,6.5-1.5,12.2-4.6,17
		c-3,4.9-7.2,8.6-12.6,11.2c-5.4,2.6-11.6,4-18.7,4c-10.8,0-19.4-2.9-26-8.6c-6.6-5.7-9.9-13.6-9.9-23.6v-45.3h20.8v43
		c0,5.3,1.4,9.2,4.1,11.9c2.7,2.7,6.4,4,11,4c4.7,0,8.3-1.3,11-4c2.7-2.7,4-6.7,4-11.9L378.7,259.6L378.7,259.6z M473,263
		c-5.7-3.3-11.9-4.9-18.7-4.9c-6.7,0-12.6,1.6-17.8,4.9c-2,1.3-3.8,2.7-5.4,4.3l-3.9-7.7h-14.8v104.8h20.8v-35.2
		c1.2,1.1,2.5,2.1,4,3.1c5,3.2,10.6,4.8,17,4.8c6.8,0,13-1.6,18.7-4.9c5.7-3.3,10.3-7.9,13.8-13.8c3.5-5.9,5.2-12.8,5.2-20.7
		c0-7.9-1.8-14.8-5.2-20.7C483.2,270.9,478.7,266.3,473,263z M468.4,308.7c-1.7,3.1-4.1,5.6-7,7.3c-2.9,1.7-6.3,2.6-10,2.6
		s-7.1-0.9-10-2.6c-2.9-1.7-5.3-4.2-7-7.3c-1.7-3.1-2.6-6.8-2.6-11.1c0-4.4,0.9-8.1,2.6-11.2c1.7-3.1,4.1-5.6,7-7.3
		c2.9-1.7,6.3-2.6,10-2.6c3.8,0,7.1,0.9,10,2.6c2.9,1.7,5.3,4.2,7,7.3c1.7,3.1,2.6,6.9,2.6,11.2C471,301.8,470.1,305.5,468.4,308.7z
		 M207.3,270.5c7.1-6.1,16.1-10.9,27.1-10.9v20.1c-13.4,0-20.1,5.8-23.4,11.4c-2.3,3.8-3.4,8.2-3.4,12.6v32h-20.8v-76h17.2
		L207.3,270.5z M589.2,211.3v19.1H576c-7.3,0-13.2-1-17.8-3c-4.6-2-7.9-5.1-10-9.3c-2.1-4.2-3.2-9.5-3.2-16v-30.4v-12v-26.6h20.8
		v21.3h23.4v17.3h-23.4v28.7c0,3.8,0.9,6.5,2.6,8.2c1.7,1.7,4.5,2.6,8.2,2.6H589.2z"/>
</g>
</svg>
